<svg width="100" height="100" viewBox="0 0 100 100" fill="none" xmlns="http://www.w3.org/2000/svg">
<rect width="100" height="100" rx="50" fill="#E20749"/>
<path d="M33.5821 50.532C33.0247 50.532 32.4294 50.4433 31.7961 50.266C31.1881 50.114 30.7194 49.9367 30.3901 49.734C28.6927 48.6447 27.8441 45.668 27.8441 40.804V39.778V38.6V37.688C27.8441 36.6747 27.8567 35.7753 27.8821 34.99C27.9074 34.1793 27.9581 33.3053 28.0341 32.368C28.1101 31.38 28.2241 30.582 28.3761 29.974C28.5281 29.3407 28.7814 28.6313 29.1361 27.846C29.4401 27.1113 29.8074 26.5413 30.2381 26.136C30.6941 25.7307 31.2767 25.3887 31.9861 25.11C32.6194 24.8313 33.4047 24.692 34.3421 24.692C34.7221 24.692 35.0134 24.7807 35.2161 24.958C35.4187 25.1353 35.5201 25.3633 35.5201 25.642C35.5201 25.8953 35.4314 26.1233 35.2541 26.326C35.1021 26.5287 34.9121 26.6427 34.6841 26.668H32.8981C32.3914 26.668 31.9481 26.9847 31.5681 27.618C31.1881 28.2513 30.9221 29.0747 30.7701 30.088C30.4407 31.9627 30.2761 33.4827 30.2761 34.648V34.838L30.2001 38.486C30.1494 39.5753 30.1241 40.804 30.1241 42.172C30.1241 43.1347 30.1621 43.92 30.2381 44.528C30.3647 45.44 30.5801 46.2 30.8841 46.808C31.1881 47.492 31.7074 47.986 32.4421 48.29C32.8221 48.442 33.2401 48.518 33.6961 48.518C33.9747 48.518 34.2534 48.4167 34.5321 48.214C34.8614 48.214 35.1274 48.29 35.3301 48.442C35.5581 48.5687 35.6721 48.7713 35.6721 49.05C35.6721 50.038 34.9754 50.532 33.5821 50.532ZM39.3314 50.38C39.1034 50.38 38.888 50.266 38.6854 50.038C38.508 49.81 38.47 49.582 38.5714 49.354C38.6474 49.126 38.8247 48.746 39.1034 48.214C39.8887 46.922 40.408 45.174 40.6614 42.97C40.6867 42.818 40.5854 42.628 40.3574 42.4C40.1547 42.1467 40.028 41.9567 39.9774 41.83L39.4454 41.07C38.9134 40.3353 38.47 39.664 38.1154 39.056C37.786 38.4227 37.4694 37.5867 37.1654 36.548C37.0387 36.1173 36.95 35.6613 36.8994 35.18C36.8487 34.6733 36.8234 34.3567 36.8234 34.23L36.7474 33.356C36.722 32.9253 36.684 32.5453 36.6334 32.216C36.5827 31.8613 36.5447 31.57 36.5194 31.342C36.2914 29.8727 36.1774 28.6693 36.1774 27.732C36.1774 27.3773 36.19 27.1113 36.2154 26.934C36.2407 26.554 36.2407 26.212 36.2154 25.908C36.2154 25.604 36.2154 25.3507 36.2154 25.148C36.2407 24.6413 36.418 24.388 36.7474 24.388C36.8234 24.388 36.9627 24.4133 37.1654 24.464C38.1027 24.7427 38.5714 25.2747 38.5714 26.06C38.5714 26.2627 38.546 26.6427 38.4954 27.2L38.3814 28.758C38.3814 29.4673 38.394 29.9993 38.4194 30.354C38.622 32.4567 38.85 34.534 39.1034 36.586C39.1794 37.1433 39.3567 37.6627 39.6354 38.144C39.9394 38.6 40.2434 38.98 40.5474 39.284C40.8767 39.5627 41.0667 39.702 41.1174 39.702C41.2694 39.246 41.358 38.942 41.3834 38.79C41.5354 36.5353 41.624 34.876 41.6494 33.812C41.6747 32.9253 41.6874 31.456 41.6874 29.404V24.958C41.7127 24.7553 41.7634 24.616 41.8394 24.54C41.9407 24.4387 42.1054 24.388 42.3334 24.388C42.84 24.388 43.258 24.578 43.5874 24.958C43.9167 25.3127 44.0434 25.7433 43.9674 26.25C43.8914 26.858 43.8534 27.6687 43.8534 28.682C43.8534 29.29 43.866 29.708 43.8914 29.936C43.9167 30.164 43.9294 30.4807 43.9294 30.886C43.9294 31.5193 43.8787 32.4187 43.7774 33.584C43.7774 33.8627 43.752 34.306 43.7014 34.914C43.6507 35.674 43.524 36.8393 43.3214 38.41L43.1694 39.664C43.0174 41.184 42.7134 43.0587 42.2574 45.288C42.1054 45.9973 41.8774 46.7447 41.5734 47.53C41.2694 48.29 40.9274 48.9993 40.5474 49.658C40.4714 49.8353 40.3067 50 40.0534 50.152C39.8 50.304 39.5594 50.38 39.3314 50.38ZM53.6404 49.962C53.3111 50.0127 53.0324 49.9367 52.8044 49.734C52.5764 49.506 52.4624 49.202 52.4624 48.822C52.3864 47.606 52.3484 46.4027 52.3484 45.212C52.3484 43.5907 52.3864 41.982 52.4624 40.386C52.5131 38.7647 52.5384 37.574 52.5384 36.814C52.2598 35.0153 52.0951 32.1147 52.0444 28.112C52.0444 27.1747 52.0318 26.4147 52.0064 25.832C50.7144 25.832 49.7771 25.8067 49.1944 25.756H48.9664C48.5864 25.756 48.3838 25.9587 48.3584 26.364L48.3204 29.1C48.3204 30.4173 48.3584 31.2153 48.4344 31.494C48.4851 31.798 48.5104 32.0007 48.5104 32.102C48.5104 32.3047 48.4851 32.6087 48.4344 33.014C48.3838 33.4193 48.3584 33.7233 48.3584 33.926C48.3584 34.306 48.4218 34.6353 48.5484 34.914C48.6498 35.142 48.6878 35.4587 48.6624 35.864C48.6624 36.2693 48.6624 36.5733 48.6624 36.776C48.6878 37.5613 48.6751 38.714 48.6244 40.234C48.5738 41.45 48.5484 42.3493 48.5484 42.932C48.5484 43.6667 48.5738 44.5027 48.6244 45.44C48.6751 46.352 48.7131 46.998 48.7384 47.378L48.8144 48.442C48.8398 48.8473 48.7511 49.1767 48.5484 49.43C48.3711 49.658 48.1051 49.772 47.7504 49.772C47.6238 49.772 47.4591 49.7467 47.2564 49.696C47.0284 49.62 46.8764 49.4933 46.8004 49.316C46.7244 49.1387 46.6738 48.9107 46.6484 48.632L46.5344 45.44L46.5724 40.842C46.5218 38.106 46.4964 36.0667 46.4964 34.724L46.4584 31.646C46.4331 30.202 46.3698 28.6693 46.2684 27.048L46.1924 25.49V25.262C46.1924 25.0087 46.2431 24.8313 46.3444 24.73C46.4458 24.6033 46.6358 24.502 46.9144 24.426C47.4211 24.2993 47.8771 24.236 48.2824 24.236C48.5104 24.236 48.6751 24.2487 48.7764 24.274C48.9791 24.274 49.2831 24.2993 49.6884 24.35C50.2458 24.4007 50.6891 24.426 51.0184 24.426C51.4998 24.426 51.9431 24.3753 52.3484 24.274C52.6271 24.198 52.9818 24.2613 53.4124 24.464C53.8431 24.6413 54.0838 24.9073 54.1344 25.262C54.1851 25.6167 54.2104 25.8953 54.2104 26.098C54.2104 26.3007 54.1978 26.4527 54.1724 26.554C54.0711 26.858 54.0204 27.2253 54.0204 27.656C54.0204 27.884 54.0331 28.1373 54.0584 28.416C54.0838 28.6947 54.0964 28.986 54.0964 29.29C54.0964 29.5433 54.0838 29.746 54.0584 29.898C54.0331 30.126 54.0204 30.4933 54.0204 31C54.0204 31.836 54.0964 33.014 54.2484 34.534L54.3624 35.56C54.3878 35.788 54.4004 36.13 54.4004 36.586C54.4004 37.118 54.3878 37.5107 54.3624 37.764C54.3624 37.9667 54.3498 38.22 54.3244 38.524C54.3244 38.8027 54.3371 39.1447 54.3624 39.55C54.3371 40.1327 54.3498 41.0067 54.4004 42.172L54.4384 43.008L54.6664 48.974C54.6664 49.2527 54.5904 49.4807 54.4384 49.658C54.3118 49.81 54.0458 49.9113 53.6404 49.962ZM59.4476 50.494C59.1183 50.494 58.8143 50.38 58.5356 50.152C58.2823 49.924 58.1429 49.6453 58.1176 49.316V48.328V47.568C58.0923 47.34 58.0796 47.074 58.0796 46.77C58.0796 46.238 58.0416 45.4273 57.9656 44.338L57.8896 41.906C57.8896 40.6647 57.9276 38.8153 58.0036 36.358C58.1049 34.154 58.1556 32.3047 58.1556 30.81C58.1556 30.4553 58.1176 29.9233 58.0416 29.214C57.9656 28.4793 57.9276 27.9473 57.9276 27.618C57.9276 25.8193 58.4596 24.92 59.5236 24.92C60.3596 24.92 61.3223 25.0847 62.4116 25.414C63.5263 25.7433 64.0836 26.136 64.0836 26.592C64.0836 26.8453 63.9696 27.086 63.7416 27.314C63.5389 27.5167 63.2856 27.6813 62.9816 27.808C61.9176 27.428 60.9549 27.1747 60.0936 27.048C60.1189 27.428 60.1316 27.9727 60.1316 28.682C60.1316 29.6953 60.1189 30.6073 60.0936 31.418C60.0176 32.634 59.9796 33.546 59.9796 34.154L60.0936 34.762L60.7016 34.724C60.9043 34.6987 61.1576 34.686 61.4616 34.686C62.6776 34.686 63.2856 35.0407 63.2856 35.75C63.2856 36.0287 63.1716 36.2693 62.9436 36.472C62.7156 36.6493 62.4243 36.738 62.0696 36.738C61.6136 36.738 61.2589 36.7127 61.0056 36.662H60.0556C60.1063 37.3207 60.1316 38.2833 60.1316 39.55C60.1316 40.8167 60.1189 41.9567 60.0936 42.97C60.0176 44.5153 59.9796 45.668 59.9796 46.428C59.9796 47.8467 60.0049 48.556 60.0556 48.556L61.3096 48.518C61.7403 48.4927 62.2596 48.48 62.8676 48.48C63.8303 48.48 64.3116 48.784 64.3116 49.392C64.3116 49.7467 64.1469 50.0127 63.8176 50.19C63.5136 50.3927 63.1336 50.494 62.6776 50.494H59.4476ZM67.8144 50.266C67.4851 48.9233 67.3204 47.0613 67.3204 44.68L67.3964 41.298C67.4471 40.2847 67.4724 39.1573 67.4724 37.916C67.3204 37.5613 67.2444 37.2447 67.2444 36.966V36.852C67.4978 36.3707 67.6244 35.2813 67.6244 33.584L67.6624 31.836C67.6878 31.2787 67.7004 30.658 67.7004 29.974C67.7004 28.4793 67.5991 27.3013 67.3964 26.44C67.4724 26.0853 67.5991 25.7813 67.7764 25.528C67.9538 25.2493 68.1691 25.11 68.4224 25.11H70.0944C70.8038 25.11 71.4244 25.2747 71.9564 25.604C72.4884 25.908 72.8938 26.3513 73.1724 26.934C73.6791 27.9727 73.9324 29.2013 73.9324 30.62C73.9324 31.6333 73.9198 32.4313 73.8944 33.014C73.8438 33.7487 73.7171 34.42 73.5144 35.028C73.4384 35.3573 73.3244 35.636 73.1724 35.864C73.0458 36.0667 72.8558 36.32 72.6024 36.624C72.2478 37.0547 71.6651 37.46 70.8544 37.84C70.5251 38.0173 70.0944 38.182 69.5624 38.334V42.4L69.6384 44.832L69.7144 46.01C69.8158 47.4287 69.8664 48.632 69.8664 49.62C69.8664 49.924 69.7398 50.1773 69.4864 50.38C69.2331 50.608 68.9418 50.722 68.6124 50.722L67.8144 50.266ZM69.6004 36.776C71.0951 36.548 71.8424 34.4073 71.8424 30.354C71.8424 29.6193 71.8044 29.0493 71.7284 28.644C71.6524 28.34 71.5511 28.0993 71.4244 27.922C71.2978 27.7193 71.1078 27.5547 70.8544 27.428C70.5758 27.276 70.2718 27.2 69.9424 27.2C69.9424 27.1747 69.8031 27.162 69.5244 27.162V29.328C69.5244 30.8227 69.5371 32.1527 69.5624 33.318C69.5624 34.6353 69.5751 35.4967 69.6004 35.902V36.7V36.776ZM38.0158 80.976C37.2304 80.976 36.8378 80.1907 36.8378 78.62V76.188V73.756C36.8378 72.4893 36.7491 70.83 36.5718 68.778C36.3691 66.4727 36.2678 64.8893 36.2678 64.028L36.3438 61.672C36.3944 60.988 36.4198 60.2153 36.4198 59.354C36.3184 59.6833 35.9004 61.4313 35.1658 64.598C34.4311 67.6633 33.6711 70.5007 32.8858 73.11C32.1258 75.618 31.5051 76.872 31.0238 76.872C30.5424 76.872 30.1498 76.7327 29.8458 76.454C29.5671 76.15 29.4278 75.7447 29.4278 75.238C29.4278 74.1233 28.9718 71.7547 28.0598 68.132C27.1731 64.5093 26.3624 61.5453 25.6278 59.24L25.3998 63.534C25.1971 67.1567 25.0578 70.1713 24.9818 72.578C24.9311 74.9087 24.9058 76.5047 24.9058 77.366C24.9058 77.5687 24.9184 77.7587 24.9438 77.936V78.468C24.9438 78.8987 24.8551 79.2153 24.6778 79.418C24.5004 79.646 24.1711 79.76 23.6898 79.76C23.4364 79.76 23.1958 79.6587 22.9678 79.456C22.7398 79.2787 22.6258 79.076 22.6258 78.848C22.6258 76.264 22.8158 72.388 23.1958 67.22C23.5758 62.052 23.7658 58.176 23.7658 55.592C23.6138 55.364 23.5378 55.1233 23.5378 54.87C23.5378 54.566 23.6771 54.338 23.9558 54.186C24.2598 54.0087 24.6144 53.92 25.0198 53.92C25.3491 53.92 25.9571 55.1107 26.8438 57.492C27.7304 59.8733 28.6171 62.5713 29.5038 65.586C30.3904 68.6007 30.9604 70.7793 31.2138 72.122C31.4164 71.438 31.5811 70.8047 31.7078 70.222L31.9358 69.31C32.7464 65.7633 33.5571 62.5587 34.3678 59.696C34.8491 57.948 35.3178 56.58 35.7738 55.592C36.2298 54.528 36.6478 53.996 37.0278 53.996C37.3824 53.996 37.6991 54.0973 37.9778 54.3C38.2818 54.4773 38.4338 54.718 38.4338 55.022C38.4338 56.846 38.5098 59.582 38.6618 63.23C38.8391 66.6247 38.9278 69.2593 38.9278 71.134L38.8898 73.148L38.8138 75.162C38.8138 75.466 38.8518 75.922 38.9278 76.53L39.0418 77.86C39.0671 78.088 39.0798 78.2653 39.0798 78.392C39.1051 78.5187 39.1178 78.5947 39.1178 78.62C39.2444 78.9493 39.3078 79.19 39.3078 79.342C39.3078 79.7727 39.1811 80.1527 38.9278 80.482C38.6744 80.8113 38.3704 80.976 38.0158 80.976ZM49.9685 79.342C49.3859 79.342 48.9552 79.2533 48.6765 79.076C48.3979 78.8987 48.2585 78.5693 48.2585 78.088C48.2585 77.328 48.1319 76.036 47.8785 74.212L47.7265 73.414L43.9645 72.844C43.8125 73.4267 43.5972 74.6047 43.3185 76.378C43.1665 77.6193 42.9259 78.4427 42.5965 78.848C42.4192 79.076 42.1659 79.19 41.8365 79.19C41.5325 79.19 41.2539 79.1013 41.0005 78.924C40.7472 78.7213 40.6205 78.4807 40.6205 78.202L40.6965 78.012L40.7345 77.86C42.4065 71.3493 43.6732 64.9273 44.5345 58.594C44.5345 58.4927 44.5472 58.328 44.5725 58.1C44.5979 57.8467 44.6232 57.492 44.6485 57.036C44.7245 56.0987 44.8005 55.3513 44.8765 54.794C44.9779 54.2367 45.1299 53.8187 45.3325 53.54H46.6245C46.9792 53.54 47.2832 53.6287 47.5365 53.806C47.7899 53.958 47.9165 54.186 47.9165 54.49C47.9165 56.4153 48.1825 59.278 48.7145 63.078C49.2212 66.9793 49.4745 69.7153 49.4745 71.286C49.4745 71.438 49.5379 71.8307 49.6645 72.464C49.7912 73.0467 49.8545 73.4267 49.8545 73.604C49.8545 73.7813 49.9812 74.5413 50.2345 75.884C50.4625 77.1 50.5765 77.8853 50.5765 78.24V78.278C50.5765 78.8353 50.3739 79.19 49.9685 79.342ZM47.4605 72.046C47.3845 71.666 47.3465 71.1973 47.3465 70.64C47.3465 68.36 47.1439 65.4467 46.7385 61.9L46.3585 57.948C45.2692 63.9013 44.5219 68.398 44.1165 71.438C44.4965 71.6913 45.6112 71.894 47.4605 72.046ZM67.632 80.976C66.8467 80.976 66.454 80.1907 66.454 78.62V76.188V73.756C66.454 72.4893 66.3653 70.83 66.188 68.778C65.9853 66.4727 65.884 64.8893 65.884 64.028L65.96 61.672C66.0107 60.988 66.036 60.2153 66.036 59.354C65.9347 59.6833 65.5167 61.4313 64.782 64.598C64.0473 67.6633 63.2873 70.5007 62.502 73.11C61.742 75.618 61.1213 76.872 60.64 76.872C60.1587 76.872 59.766 76.7327 59.462 76.454C59.1833 76.15 59.044 75.7447 59.044 75.238C59.044 74.1233 58.588 71.7547 57.676 68.132C56.7893 64.5093 55.9787 61.5453 55.244 59.24L55.016 63.534C54.8133 67.1567 54.674 70.1713 54.598 72.578C54.5473 74.9087 54.522 76.5047 54.522 77.366C54.522 77.5687 54.5347 77.7587 54.56 77.936V78.468C54.56 78.8987 54.4713 79.2153 54.294 79.418C54.1167 79.646 53.7873 79.76 53.306 79.76C53.0527 79.76 52.812 79.6587 52.584 79.456C52.356 79.2787 52.242 79.076 52.242 78.848C52.242 76.264 52.432 72.388 52.812 67.22C53.192 62.052 53.382 58.176 53.382 55.592C53.23 55.364 53.154 55.1233 53.154 54.87C53.154 54.566 53.2933 54.338 53.572 54.186C53.876 54.0087 54.2307 53.92 54.636 53.92C54.9653 53.92 55.5733 55.1107 56.46 57.492C57.3467 59.8733 58.2333 62.5713 59.12 65.586C60.0067 68.6007 60.5767 70.7793 60.83 72.122C61.0327 71.438 61.1973 70.8047 61.324 70.222L61.552 69.31C62.3627 65.7633 63.1733 62.5587 63.984 59.696C64.4653 57.948 64.934 56.58 65.39 55.592C65.846 54.528 66.264 53.996 66.644 53.996C66.9987 53.996 67.3153 54.0973 67.594 54.3C67.898 54.4773 68.05 54.718 68.05 55.022C68.05 56.846 68.126 59.582 68.278 63.23C68.4553 66.6247 68.544 69.2593 68.544 71.134L68.506 73.148L68.43 75.162C68.43 75.466 68.468 75.922 68.544 76.53L68.658 77.86C68.6833 78.088 68.696 78.2653 68.696 78.392C68.7213 78.5187 68.734 78.5947 68.734 78.62C68.8607 78.9493 68.924 79.19 68.924 79.342C68.924 79.7727 68.7973 80.1527 68.544 80.482C68.2907 80.8113 67.9867 80.976 67.632 80.976ZM79.5848 79.342C79.0021 79.342 78.5714 79.2533 78.2928 79.076C78.0141 78.8987 77.8748 78.5693 77.8748 78.088C77.8748 77.328 77.7481 76.036 77.4948 74.212L77.3428 73.414L73.5808 72.844C73.4288 73.4267 73.2134 74.6047 72.9348 76.378C72.7828 77.6193 72.5421 78.4427 72.2128 78.848C72.0354 79.076 71.7821 79.19 71.4528 79.19C71.1488 79.19 70.8701 79.1013 70.6168 78.924C70.3634 78.7213 70.2368 78.4807 70.2368 78.202L70.3128 78.012L70.3508 77.86C72.0228 71.3493 73.2894 64.9273 74.1508 58.594C74.1508 58.4927 74.1634 58.328 74.1888 58.1C74.2141 57.8467 74.2394 57.492 74.2648 57.036C74.3408 56.0987 74.4168 55.3513 74.4928 54.794C74.5941 54.2367 74.7461 53.8187 74.9488 53.54H76.2408C76.5954 53.54 76.8994 53.6287 77.1528 53.806C77.4061 53.958 77.5328 54.186 77.5328 54.49C77.5328 56.4153 77.7988 59.278 78.3308 63.078C78.8374 66.9793 79.0908 69.7153 79.0908 71.286C79.0908 71.438 79.1541 71.8307 79.2808 72.464C79.4074 73.0467 79.4708 73.4267 79.4708 73.604C79.4708 73.7813 79.5974 74.5413 79.8508 75.884C80.0788 77.1 80.1928 77.8853 80.1928 78.24V78.278C80.1928 78.8353 79.9901 79.19 79.5848 79.342ZM77.0768 72.046C77.0008 71.666 76.9628 71.1973 76.9628 70.64C76.9628 68.36 76.7601 65.4467 76.3548 61.9L75.9748 57.948C74.8854 63.9013 74.1381 68.398 73.7328 71.438C74.1128 71.6913 75.2274 71.894 77.0768 72.046Z" fill="white"/>
</svg>
